# xmcd CD database file
#
# Track frame offsets:
#	150
#	17429
#	30388
#	52854
#	70962
#	84834
#	110268
#	122750
#	148473
#	180236
#	195747
#	223396
#	227101
#
# Disc length: 3294 seconds
#
# Revision: 0
# Processed by: cddbd v1.5.2PL0 Copyright (c) Steve Scherf et al.
# Submitted via: CDex 1.70beta2
#
DISCID=ad0cdc0d
DTITLE=Oache Brothers - Oache Brothers
DYEAR=2008
DGENRE=Country
TTITLE0=Oide Landstrassn (The Valley Road)
TTITLE1=Freestyle Chiller
TTITLE2=Wolkenreise
TTITLE3=Frei
TTITLE4=Jung
TTITLE5=Angst
TTITLE6=He Du
TTITLE7=Dei Nacht
TTITLE8=Message in a bottle
TTITLE9=The wreck on the highway
TTITLE10=Dui Dab (Live Hausham 08)
TTITLE11=Bull sogt o! (Live Hausham 08)
TTITLE12=Würstlstand (Live Hausham 08)
EXTD=YEAR: 2008
EXTT0=
EXTT1=
EXTT2=
EXTT3=
EXTT4=
EXTT5=
EXTT6=
EXTT7=
EXTT8=
EXTT9=
EXTT10=
EXTT11=
EXTT12=
PLAYORDER=
